<svg width="66" height="66" viewBox="0 0 66 66" fill="none" xmlns="http://www.w3.org/2000/svg">
<circle cx="33" cy="33" r="33" fill="#F2F2F2"/>
<g clip-path="url(#clip0)">
<path d="M40.4801 14.6895L40.4806 14.6886L35.6966 12.2719C35.2957 11.98 34.7064 11.8955 34.1912 12.1557L16.2741 21.2071C15.1981 21.7507 14.5352 22.7553 14.5352 23.8426V50.2958C14.5352 50.7227 14.7902 51.0712 15.1515 51.2703L15.1508 51.2716L15.1732 51.2829C15.188 51.2907 15.2028 51.2982 15.2179 51.3056L20.0092 53.726C20.4102 54.0192 21.0004 54.1043 21.5166 53.8436L39.4337 44.7923C40.5097 44.2487 41.1726 43.244 41.1726 42.1568V15.7036C41.1726 15.247 40.8816 14.8798 40.4801 14.6895Z" fill="url(#paint0_linear)"/>
<path d="M21.2766 23.7546L39.1936 14.7032C40.0732 14.259 41.1725 14.8143 41.1725 15.703V42.1561C41.1725 43.2434 40.5096 44.248 39.4335 44.7916L21.5165 53.843C20.637 54.2872 19.5376 53.7319 19.5376 52.8432V26.3901C19.5377 25.3028 20.2005 24.2982 21.2766 23.7546Z" fill="#7662BD"/>
<path d="M21.6431 26.8444L39.2894 17.9297V22.7305L21.6431 31.6451V26.8444Z" fill="#43386B"/>
<path d="M27.3296 32.0017L27.3297 32.0015L26.3952 31.5308L26.3951 31.5309C26.0262 31.3599 25.5524 31.3842 25.0355 31.6454C23.8593 32.2396 22.9058 33.8338 22.9058 35.206C22.9058 35.9604 23.1943 36.49 23.6493 36.7159L23.649 36.7164L24.5028 37.1478L24.5036 37.1462C24.8789 37.3425 25.3713 37.3283 25.9108 37.0557C27.087 36.4615 28.0405 34.8674 28.0405 33.4951C28.0407 32.7588 27.766 32.2363 27.3296 32.0017Z" fill="url(#paint1_linear)"/>
<path d="M28.0407 33.4957C28.0407 32.1234 27.0872 31.4927 25.911 32.0869C24.7348 32.6811 23.7812 34.2752 23.7812 35.6475C23.7812 37.0197 24.7348 37.6505 25.911 37.0563C27.0872 36.4621 28.0407 34.868 28.0407 33.4957Z" fill="url(#paint2_linear)"/>
<path d="M32.6783 29.2926L32.6784 29.2925L31.7439 28.8218L31.7438 28.8219C31.3749 28.6509 30.901 28.6752 30.3841 28.9364C29.2079 29.5307 28.2544 31.1248 28.2544 32.497C28.2544 33.2514 28.543 33.781 28.9979 34.0069L28.9976 34.0074L29.8514 34.4388L29.8523 34.4371C30.2275 34.6334 30.7199 34.6192 31.2595 34.3466C32.4356 33.7524 33.3892 32.1583 33.3892 30.786C33.3894 30.0496 33.1145 29.5272 32.6783 29.2926Z" fill="url(#paint3_linear)"/>
<path d="M33.3893 30.7867C33.3893 29.4144 32.4358 28.7837 31.2596 29.3779C30.0834 29.9722 29.1299 31.5663 29.1299 32.9385C29.1299 34.3107 30.0834 34.9415 31.2596 34.3473C32.4358 33.7532 33.3893 32.1591 33.3893 30.7867Z" fill="url(#paint4_linear)"/>
<path d="M38.0264 26.5915L38.0265 26.5914L37.092 26.1207L37.0919 26.1207C36.723 25.9497 36.2492 25.9741 35.7323 26.2353C34.5561 26.8295 33.6025 28.4236 33.6025 29.7959C33.6025 30.5503 33.8911 31.0799 34.3461 31.3058L34.3458 31.3063L35.1996 31.7377L35.2004 31.7361C35.5757 31.9324 36.0681 31.9182 36.6076 31.6456C37.7838 31.0514 38.7373 29.4573 38.7373 28.085C38.7374 27.3486 38.4626 26.8261 38.0264 26.5915Z" fill="url(#paint5_linear)"/>
<path d="M38.7375 28.0855C38.7375 26.7133 37.7839 26.0826 36.6077 26.6767C35.4316 27.271 34.478 28.8651 34.478 30.2373C34.478 31.6095 35.4316 32.2402 36.6077 31.6461C37.7839 31.0519 38.7375 29.4577 38.7375 28.0855Z" fill="url(#paint6_linear)"/>
<path d="M27.3296 38.3864L27.3297 38.3863L26.3952 37.9156L26.3951 37.9157C26.0262 37.7446 25.5524 37.769 25.0355 38.0302C23.8593 38.6243 22.9058 40.2185 22.9058 41.5908C22.9058 42.3452 23.1943 42.8748 23.6493 43.1006L23.649 43.1012L24.5028 43.5325L24.5036 43.5309C24.8789 43.7272 25.3713 43.713 25.9108 43.4404C27.087 42.8462 28.0405 41.252 28.0405 39.8798C28.0407 39.1434 27.766 38.621 27.3296 38.3864Z" fill="url(#paint7_linear)"/>
<path d="M28.0407 39.8805C28.0407 38.5082 27.0872 37.8775 25.911 38.4717C24.7348 39.0659 23.7812 40.66 23.7812 42.0323C23.7812 43.4045 24.7348 44.0352 25.911 43.4411C27.0872 42.8469 28.0407 41.2528 28.0407 39.8805Z" fill="url(#paint8_linear)"/>
<path d="M32.6783 35.6793L32.6784 35.6792L31.7439 35.2085L31.7438 35.2086C31.3749 35.0376 30.901 35.062 30.3841 35.3232C29.2079 35.9174 28.2544 37.5115 28.2544 38.8837C28.2544 39.6382 28.543 40.1678 28.9979 40.3936L28.9976 40.3942L29.8514 40.8255L29.8523 40.8238C30.2275 41.0201 30.7199 41.006 31.2595 40.7334C32.4356 40.1391 33.3892 38.545 33.3892 37.1728C33.3894 36.4364 33.1145 35.9139 32.6783 35.6793Z" fill="url(#paint9_linear)"/>
<path d="M33.3893 37.1735C33.3893 35.8012 32.4358 35.1704 31.2596 35.7647C30.0834 36.3589 29.1299 37.953 29.1299 39.3252C29.1299 40.6974 30.0834 41.3283 31.2596 40.734C32.4358 40.1398 33.3893 38.5457 33.3893 37.1735Z" fill="url(#paint10_linear)"/>
<path d="M38.0264 32.9763L38.0265 32.9761L37.092 32.5054L37.0919 32.5055C36.723 32.3345 36.2492 32.3588 35.7323 32.62C34.5561 33.2143 33.6025 34.8084 33.6025 36.1807C33.6025 36.9351 33.8911 37.4647 34.3461 37.6905L34.3458 37.6911L35.1996 38.1224L35.2004 38.1209C35.5757 38.3172 36.0681 38.303 36.6076 38.0304C37.7838 37.4362 38.7373 35.8421 38.7373 34.4698C38.7374 33.7334 38.4626 33.2109 38.0264 32.9763Z" fill="url(#paint11_linear)"/>
<path d="M38.7375 34.4703C38.7375 33.0981 37.7839 32.4673 36.6077 33.0615C35.4316 33.6557 34.478 35.2498 34.478 36.6221C34.478 37.9944 35.4316 38.6251 36.6077 38.0309C37.7839 37.4367 38.7375 35.8426 38.7375 34.4703Z" fill="url(#paint12_linear)"/>
<path d="M27.3296 44.7732L27.3297 44.773L26.3952 44.3023L26.3951 44.3024C26.0262 44.1314 25.5524 44.1557 25.0355 44.4169C23.8593 45.0111 22.9058 46.6053 22.9058 47.9775C22.9058 48.7319 23.1943 49.2615 23.6493 49.4873L23.649 49.4879L24.5028 49.9192L24.5036 49.9176C24.8789 50.1139 25.3713 50.0997 25.9108 49.8271C27.087 49.2329 28.0405 47.6388 28.0405 46.2665C28.0407 45.5302 27.766 45.0078 27.3296 44.7732Z" fill="url(#paint13_linear)"/>
<path d="M28.0407 46.2672C28.0407 44.895 27.0872 44.2642 25.911 44.8584C24.7348 45.4526 23.7812 47.0467 23.7812 48.419C23.7812 49.7913 24.7348 50.422 25.911 49.8278C27.0872 49.2335 28.0407 47.6394 28.0407 46.2672Z" fill="url(#paint14_linear)"/>
<path d="M32.6783 42.0641L32.6784 42.0639L31.7439 41.5932L31.7438 41.5934C31.3749 41.4224 30.901 41.4467 30.3841 41.7079C29.2079 42.3022 28.2544 43.8963 28.2544 45.2685C28.2544 46.0229 28.543 46.5525 28.9979 46.7784L28.9976 46.7789L29.8514 47.2103L29.8523 47.2086C30.2275 47.4049 30.7199 47.3907 31.2595 47.1181C32.4356 46.5239 33.3892 44.9298 33.3892 43.5576C33.3894 42.8212 33.1145 42.2987 32.6783 42.0641Z" fill="url(#paint15_linear)"/>
<path d="M33.3893 43.5582C33.3893 42.186 32.4358 41.5552 31.2596 42.1494C30.0834 42.7436 29.1299 44.3377 29.1299 45.7099C29.1299 47.0822 30.0834 47.713 31.2596 47.1187C32.4358 46.5246 33.3893 44.9304 33.3893 43.5582Z" fill="url(#paint16_linear)"/>
<path d="M38.0264 39.363L38.0265 39.3628L37.092 38.8922L37.0919 38.8922C36.723 38.7212 36.2492 38.7456 35.7323 39.0067C34.5561 39.601 33.6025 41.1951 33.6025 42.5673C33.6025 43.3218 33.8911 43.8514 34.3461 44.0772L34.3458 44.0778L35.1996 44.5091L35.2004 44.5075C35.5757 44.7038 36.0681 44.6896 36.6076 44.417C37.7838 43.8228 38.7373 42.2287 38.7373 40.8565C38.7374 40.1201 38.4626 39.5976 38.0264 39.363Z" fill="url(#paint17_linear)"/>
<path d="M38.7375 40.8571C38.7375 39.4848 37.7839 38.854 36.6077 39.4483C35.4316 40.0425 34.478 41.6366 34.478 43.0088C34.478 44.381 35.4316 45.0118 36.6077 44.4176C37.7839 43.8235 38.7375 42.2294 38.7375 40.8571Z" fill="url(#paint18_linear)"/>
<path d="M48.8858 29.7357L48.8862 29.735L45.4971 28.0278L45.4969 28.0283C44.1591 27.4079 42.4407 27.4963 40.5658 28.4435C36.3 30.5985 32.8418 36.38 32.8418 41.3569C32.8418 44.093 33.8884 46.0138 35.5385 46.8328L35.5374 46.835L38.634 48.3992L38.6371 48.3934C39.9982 49.1053 41.7839 49.0539 43.7407 48.0654C48.0066 45.9103 51.4647 40.1289 51.4647 35.152C51.4646 32.4812 50.4679 30.5865 48.8858 29.7357Z" fill="url(#paint19_linear)"/>
<path d="M49.9233 41.3728C52.4905 36.101 51.8084 30.7972 48.3998 29.5264C44.9913 28.2556 40.147 31.4991 37.5799 36.7709C35.0127 42.0427 35.6948 47.3466 39.1033 48.6174C42.5119 49.8882 47.3561 46.6447 49.9233 41.3728Z" fill="#F7E041"/>
<path d="M48.5479 38.7503L46.5369 37.7188C46.1287 37.4951 45.5904 37.4961 45.0452 37.5614C45.1933 37.4122 45.3818 37.2792 45.6009 37.1686C46.3227 36.8039 47.4926 36.6921 48.4135 36.8366L49.2721 34.2976L47.2371 33.2537C47.0256 33.2016 46.7931 33.1735 46.5466 33.1664V32.4657L44.5116 31.4219L42.8564 32.258V34.3923C41.2634 35.5019 40.2679 37.1229 40.2679 38.7345C40.2679 39.8238 40.6885 40.275 41.2747 40.4232L42.7459 41.1664C43.1766 41.5809 43.8655 41.5706 44.5596 41.4681C44.3699 41.7014 44.0982 41.9102 43.765 42.0786C42.8564 42.5376 41.4999 42.5841 40.6039 42.1365L39.7202 44.6591L41.7552 45.7029C42.0816 45.8507 42.4542 45.9388 42.8564 45.9682V46.8643L44.8915 47.9081L46.5467 47.0719V44.8505C48.1148 43.8115 49.2848 42.175 49.2848 40.3892C49.2847 39.4611 48.9889 38.9799 48.5479 38.7503Z" fill="url(#paint20_linear)"/>
<path d="M46.5467 44.8496V47.071L44.8916 47.9071V45.6712C43.7218 46.0734 42.5892 46.0793 41.7554 45.7021L42.6391 43.1794C43.535 43.6269 44.8916 43.5805 45.8001 43.1215C46.4721 42.7821 46.8953 42.2779 46.8953 41.7407C46.8953 40.0129 42.3031 43.3782 42.3031 39.7774C42.3031 38.1658 43.2986 36.5449 44.8916 35.4353V33.301L46.5467 32.4648V34.5846C47.5673 34.1997 48.538 34.1159 49.2722 34.2967L48.4135 36.8357C47.4925 36.6912 46.3228 36.803 45.6009 37.1677C45.0534 37.4443 44.6926 37.8589 44.6926 38.3235C44.6926 40.0077 49.2848 36.7296 49.2848 40.3884C49.2848 42.1742 48.1149 43.8106 46.5467 44.8496Z" fill="#06DAAE"/>
<path d="M42.8564 34.3921L44.8915 35.436V33.3017L42.8564 32.2578V34.3921Z" fill="#236568"/>
<path d="M42.6389 43.1806L40.6039 42.1367L39.7202 44.6593L41.7552 45.7032L42.6389 43.1806Z" fill="#2F878A"/>
</g>
<defs>
<linearGradient id="paint0_linear" x1="14.5352" y1="32.9996" x2="41.1726" y2="32.9996" gradientUnits="userSpaceOnUse">
<stop stop-color="#43386B"/>
<stop offset="1" stop-color="#7662BD"/>
</linearGradient>
<linearGradient id="paint1_linear" x1="25.6178" y1="34.1316" x2="26.3297" y2="32.7225" gradientUnits="userSpaceOnUse">
<stop stop-color="#43386B"/>
<stop offset="1" stop-color="#7662BD"/>
</linearGradient>
<linearGradient id="paint2_linear" x1="25.911" y1="38.2044" x2="25.911" y2="32.6165" gradientUnits="userSpaceOnUse">
<stop stop-color="#A996EB"/>
<stop offset="1" stop-color="#C5BAEB"/>
</linearGradient>
<linearGradient id="paint3_linear" x1="30.9664" y1="31.4225" x2="31.6782" y2="30.0134" gradientUnits="userSpaceOnUse">
<stop stop-color="#43386B"/>
<stop offset="1" stop-color="#7662BD"/>
</linearGradient>
<linearGradient id="paint4_linear" x1="31.2596" y1="34.571" x2="31.2596" y2="29.1544" gradientUnits="userSpaceOnUse">
<stop stop-color="#A996EB"/>
<stop offset="1" stop-color="#C5BAEB"/>
</linearGradient>
<linearGradient id="paint5_linear" x1="36.3144" y1="28.7215" x2="37.0263" y2="27.3123" gradientUnits="userSpaceOnUse">
<stop stop-color="#43386B"/>
<stop offset="1" stop-color="#7662BD"/>
</linearGradient>
<linearGradient id="paint6_linear" x1="36.6077" y1="31.8698" x2="36.6077" y2="26.4531" gradientUnits="userSpaceOnUse">
<stop stop-color="#A996EB"/>
<stop offset="1" stop-color="#C5BAEB"/>
</linearGradient>
<linearGradient id="paint7_linear" x1="25.6178" y1="40.5163" x2="26.3297" y2="39.1072" gradientUnits="userSpaceOnUse">
<stop stop-color="#43386B"/>
<stop offset="1" stop-color="#7662BD"/>
</linearGradient>
<linearGradient id="paint8_linear" x1="25.911" y1="43.6648" x2="25.911" y2="38.2482" gradientUnits="userSpaceOnUse">
<stop stop-color="#A996EB"/>
<stop offset="1" stop-color="#C5BAEB"/>
</linearGradient>
<linearGradient id="paint9_linear" x1="30.9664" y1="37.8092" x2="31.6782" y2="36.4001" gradientUnits="userSpaceOnUse">
<stop stop-color="#43386B"/>
<stop offset="1" stop-color="#7662BD"/>
</linearGradient>
<linearGradient id="paint10_linear" x1="31.2596" y1="40.9576" x2="31.2596" y2="35.541" gradientUnits="userSpaceOnUse">
<stop stop-color="#A996EB"/>
<stop offset="1" stop-color="#C5BAEB"/>
</linearGradient>
<linearGradient id="paint11_linear" x1="36.3144" y1="35.1062" x2="37.0264" y2="33.6971" gradientUnits="userSpaceOnUse">
<stop stop-color="#43386B"/>
<stop offset="1" stop-color="#7662BD"/>
</linearGradient>
<linearGradient id="paint12_linear" x1="36.6077" y1="38.2546" x2="36.6077" y2="32.8379" gradientUnits="userSpaceOnUse">
<stop stop-color="#A996EB"/>
<stop offset="1" stop-color="#C5BAEB"/>
</linearGradient>
<linearGradient id="paint13_linear" x1="25.6178" y1="46.903" x2="26.3297" y2="45.4939" gradientUnits="userSpaceOnUse">
<stop stop-color="#43386B"/>
<stop offset="1" stop-color="#7662BD"/>
</linearGradient>
<linearGradient id="paint14_linear" x1="25.911" y1="50.0514" x2="25.911" y2="44.6348" gradientUnits="userSpaceOnUse">
<stop stop-color="#A996EB"/>
<stop offset="1" stop-color="#C5BAEB"/>
</linearGradient>
<linearGradient id="paint15_linear" x1="30.9664" y1="44.194" x2="31.6782" y2="42.7849" gradientUnits="userSpaceOnUse">
<stop stop-color="#43386B"/>
<stop offset="1" stop-color="#7662BD"/>
</linearGradient>
<linearGradient id="paint16_linear" x1="31.2596" y1="47.3424" x2="31.2596" y2="41.9258" gradientUnits="userSpaceOnUse">
<stop stop-color="#A996EB"/>
<stop offset="1" stop-color="#C5BAEB"/>
</linearGradient>
<linearGradient id="paint17_linear" x1="36.3144" y1="41.493" x2="37.0264" y2="40.0839" gradientUnits="userSpaceOnUse">
<stop stop-color="#43386B"/>
<stop offset="1" stop-color="#7662BD"/>
</linearGradient>
<linearGradient id="paint18_linear" x1="36.6077" y1="44.6413" x2="36.6077" y2="39.2246" gradientUnits="userSpaceOnUse">
<stop stop-color="#A996EB"/>
<stop offset="1" stop-color="#C5BAEB"/>
</linearGradient>
<linearGradient id="paint19_linear" x1="42.6772" y1="37.4602" x2="45.2589" y2="32.3498" gradientUnits="userSpaceOnUse">
<stop stop-color="#FFA538"/>
<stop offset="1" stop-color="#FFC538"/>
</linearGradient>
<linearGradient id="paint20_linear" x1="45.5892" y1="38.3198" x2="46.3948" y2="36.7249" gradientUnits="userSpaceOnUse">
<stop stop-color="#236568"/>
<stop offset="1" stop-color="#2F878A"/>
</linearGradient>
<clipPath id="clip0">
<rect width="48" height="42" fill="white" transform="translate(9 12)"/>
</clipPath>
</defs>
</svg>
