<svg width="66" height="66" viewBox="0 0 66 66" fill="none" xmlns="http://www.w3.org/2000/svg">
<circle cx="33" cy="33" r="33" fill="#F2F2F2"/>
<g clip-path="url(#clip0)">
<path d="M17.2939 39.0583L20.6966 37.1018L20.6967 37.1021C21.317 36.7734 22.1139 36.8202 22.9833 37.3222C24.9615 38.4642 26.565 41.5281 26.565 44.1655C26.565 45.6156 26.0796 46.6334 25.3144 47.0675L25.315 47.0687L22.048 48.9494L17.2939 39.0583Z" fill="url(#paint0_linear)"/>
<path d="M30.7563 46.8552L34.159 44.8987L34.1591 44.899C34.7794 44.5703 35.5763 44.6171 36.4458 45.119C38.4239 46.2611 40.0274 49.3249 40.0274 51.9624C40.0274 53.4124 39.542 54.4303 38.7768 54.8643L38.7774 54.8655L35.5104 56.7462L30.7563 46.8552Z" fill="url(#paint1_linear)"/>
<path d="M14.3462 32.5948V16.2734L40.5425 17.3968V33.7182C40.5425 34.0921 40.3575 34.4661 39.9873 34.6798L29.6098 40.6712C28.8718 41.0973 27.9624 41.0973 27.2244 40.6712L14.9014 33.5565C14.5312 33.3429 14.3461 32.9688 14.3462 32.5948Z" fill="url(#paint2_linear)"/>
<path d="M39.9873 16.4344L27.6642 9.31957C26.9262 8.89348 26.0168 8.89348 25.2788 9.31957L14.9014 15.3109C14.1611 15.7384 14.1611 16.8067 14.9014 17.2341L27.2245 24.3489C27.9625 24.775 28.8719 24.775 29.6099 24.3489L39.9874 18.3575C40.7275 17.9301 40.7275 16.8617 39.9873 16.4344Z" fill="url(#paint3_linear)"/>
<path d="M35.9917 14.1267L22.7561 21.7682L19.2451 19.7412L32.4808 12.0996L35.9917 14.1267Z" fill="#DEA861"/>
<path d="M33.8934 12.9141L20.6577 20.5557L21.3455 20.9528L34.5811 13.3112L33.8934 12.9141Z" fill="#CC8241"/>
<path d="M22.7561 21.7693V24.6688L19.2451 22.6417V19.7422L22.7561 21.7693Z" fill="#BA5C25"/>
<path d="M50.9221 40.5088L48.4129 29.9891C48.1123 28.7287 47.3062 27.6475 46.184 26.9997L40.7909 23.882C40.4677 23.6954 40.0989 23.7499 39.8422 23.9522L30.4148 29.3952L28.5244 30.4866L29.2665 36.1634L30.4544 36.8581L39.4656 54.4951L50.562 48.0886C50.6396 48.0568 50.7125 48.0147 50.7788 47.9635C50.9892 47.8007 51.1315 47.5467 51.1315 47.2431V42.2874C51.1313 41.6884 51.0612 41.0915 50.9221 40.5088Z" fill="url(#paint4_linear)"/>
<path d="M41.1182 47.3125L42.6988 46.4C42.793 46.3456 42.9106 46.4136 42.9106 46.5223V47.9097C42.9106 48.0978 42.8103 48.2716 42.6474 48.3657L41.0669 49.2781C40.9726 49.3325 40.855 49.2645 40.855 49.1558V47.7684C40.855 47.5803 40.9553 47.4066 41.1182 47.3125Z" fill="#E9E5F6"/>
<path d="M48.8961 42.8183L50.4766 41.9059C50.5708 41.8515 50.6885 41.9194 50.6885 42.0282V43.4156C50.6885 43.6037 50.5882 43.7775 50.4252 43.8715L48.8447 44.784C48.7505 44.8384 48.6328 44.7704 48.6328 44.6616V43.2742C48.6329 43.0862 48.7332 42.9124 48.8961 42.8183Z" fill="#E9E5F6"/>
<path d="M28.19 39.5512V31.1605C28.19 30.5087 28.8956 30.1013 29.4601 30.4272L34.8532 33.5448C35.9754 34.1927 36.7815 35.2738 37.0821 36.5342L39.5913 47.054C39.7303 47.6366 39.8005 48.2335 39.8005 48.8325V53.7882C39.8005 54.4911 39.0396 54.9304 38.4309 54.579L15.4111 41.2473C14.7415 40.8608 14.3291 40.1464 14.3291 39.3732V34.1356C14.3291 33.7126 14.7871 33.4482 15.1534 33.6597L26.7433 40.3844C27.3855 40.7571 28.19 40.2937 28.19 39.5512Z" fill="url(#paint5_linear)"/>
<path d="M29.583 40.9354V32.3359L33.9355 34.8528C34.3659 35.1013 34.6694 35.5222 34.7692 36.0092L36.6097 44.9961L29.583 40.9354Z" fill="url(#paint6_linear)"/>
<path d="M48.0659 30.8184L38.3999 36.399L40.3867 44.9962L50.0527 39.4155L48.0659 30.8184Z" fill="url(#paint7_linear)"/>
<path d="M29.5605 49.7273C29.5605 47.0899 31.164 45.8776 33.1422 47.0197C35.1203 48.1617 36.7238 51.2256 36.7238 53.863C36.7238 56.5005 35.1202 57.7128 33.1422 56.5707C31.1641 55.4287 29.5605 52.3648 29.5605 49.7273Z" fill="url(#paint8_linear)"/>
<path d="M34.4995 54.9267C35.4836 54.5074 35.6805 52.7573 34.9394 51.0179C34.1982 49.2784 32.7996 48.2082 31.8155 48.6275C30.8314 49.0468 30.6345 50.7968 31.3757 52.5363C32.1169 54.2758 33.5154 55.346 34.4995 54.9267Z" fill="#E9E5F6"/>
<path d="M33.8421 53.381C34.3434 53.1674 34.4438 52.2758 34.0662 51.3896C33.6886 50.5034 32.976 49.9582 32.4747 50.1718C31.9733 50.3854 31.873 51.277 32.2506 52.1632C32.6282 53.0494 33.3407 53.5946 33.8421 53.381Z" fill="#7662BD"/>
<path d="M16.0981 41.9285C16.0981 39.291 17.7017 38.0788 19.6798 39.2208C21.6579 40.3629 23.2614 43.4268 23.2614 46.0642C23.2614 48.7017 21.6579 49.914 19.6798 48.7719C17.7017 47.6299 16.0981 44.566 16.0981 41.9285Z" fill="url(#paint9_linear)"/>
<path d="M21.0357 47.1376C22.0197 46.7183 22.2167 44.9683 21.4755 43.2288C20.7343 41.4893 19.3357 40.4191 18.3517 40.8384C17.3676 41.2577 17.1707 43.0078 17.9118 44.7472C18.653 46.4867 20.0516 47.5569 21.0357 47.1376Z" fill="#E9E5F6"/>
<path d="M18.5435 43.3409C18.5435 42.5043 19.0521 42.1198 19.6795 42.482C20.307 42.8443 20.8156 43.8161 20.8156 44.6527C20.8156 45.4894 20.307 45.8738 19.6795 45.5116C19.0521 45.1493 18.5435 44.1775 18.5435 43.3409Z" fill="#7662BD"/>
<path d="M51.0996 46.7457L39.4737 53.1112L37.3311 52.0814V54.5737L39.1692 55.6349C39.4937 55.8222 39.8935 55.8222 40.218 55.6349L51.4511 49.1495C51.5974 49.0651 51.6704 48.9173 51.6704 48.7696V46.2773L51.0996 46.7457Z" fill="url(#paint10_linear)"/>
<path d="M37.8283 51.7945L39.8002 52.9329L51.1312 46.3909V45.7129L51.4511 45.8976C51.7435 46.0664 51.7435 46.4885 51.4511 46.6572L40.218 53.1427C39.8935 53.33 39.4937 53.33 39.1692 53.1427L37.3311 52.0814L37.8283 51.7945Z" fill="#A996EB"/>
<path d="M43.5269 48.5578L48.2786 45.8145V46.6293C48.2786 47.1471 48.0024 47.6256 47.5539 47.8844L44.2407 49.7973C43.9234 49.9805 43.5269 49.7516 43.5269 49.3852V48.5578H43.5269Z" fill="url(#paint11_linear)"/>
</g>
<defs>
<linearGradient id="paint0_linear" x1="22.2721" y1="41.943" x2="20.7993" y2="39.3923" gradientUnits="userSpaceOnUse">
<stop stop-color="#43386B"/>
<stop offset="1" stop-color="#7662BD"/>
</linearGradient>
<linearGradient id="paint1_linear" x1="35.7345" y1="49.7398" x2="34.2618" y2="47.1891" gradientUnits="userSpaceOnUse">
<stop stop-color="#43386B"/>
<stop offset="1" stop-color="#7662BD"/>
</linearGradient>
<linearGradient id="paint2_linear" x1="30.5109" y1="28.6322" x2="26.9124" y2="28.6322" gradientUnits="userSpaceOnUse">
<stop stop-color="#DEA861"/>
<stop offset="1" stop-color="#CC8241"/>
</linearGradient>
<linearGradient id="paint3_linear" x1="34.7374" y1="12.6236" x2="21.261" y2="20.4042" gradientUnits="userSpaceOnUse">
<stop stop-color="#DEA861"/>
<stop offset="1" stop-color="#EBCBA0"/>
</linearGradient>
<linearGradient id="paint4_linear" x1="46.8277" y1="48.3905" x2="35.7038" y2="26.8546" gradientUnits="userSpaceOnUse">
<stop stop-color="#1869C7"/>
<stop offset="1" stop-color="#3347F8"/>
</linearGradient>
<linearGradient id="paint5_linear" x1="34.9514" y1="49.8571" x2="27.9928" y2="30.7343" gradientUnits="userSpaceOnUse">
<stop stop-color="#1869C7"/>
<stop offset="1" stop-color="#3347F8"/>
</linearGradient>
<linearGradient id="paint6_linear" x1="33.0964" y1="44.5565" x2="33.0964" y2="33.6881" gradientUnits="userSpaceOnUse">
<stop stop-color="#43386B"/>
<stop offset="1" stop-color="#7662BD"/>
</linearGradient>
<linearGradient id="paint7_linear" x1="44.2263" y1="44.5039" x2="44.2263" y2="32.3327" gradientUnits="userSpaceOnUse">
<stop stop-color="#43386B"/>
<stop offset="1" stop-color="#7662BD"/>
</linearGradient>
<linearGradient id="paint8_linear" x1="33.1423" y1="58.4701" x2="33.1423" y2="45.5468" gradientUnits="userSpaceOnUse">
<stop stop-color="#43386B"/>
<stop offset="1" stop-color="#7662BD"/>
</linearGradient>
<linearGradient id="paint9_linear" x1="19.6798" y1="50.6713" x2="19.6798" y2="37.7481" gradientUnits="userSpaceOnUse">
<stop stop-color="#43386B"/>
<stop offset="1" stop-color="#7662BD"/>
</linearGradient>
<linearGradient id="paint10_linear" x1="39.3415" y1="51.0264" x2="41.071" y2="51.0264" gradientUnits="userSpaceOnUse">
<stop stop-color="#43386B"/>
<stop offset="1" stop-color="#7662BD"/>
</linearGradient>
<linearGradient id="paint11_linear" x1="45.9029" y1="49.7213" x2="45.9029" y2="46.2467" gradientUnits="userSpaceOnUse">
<stop stop-color="#43386B"/>
<stop offset="1" stop-color="#594A8E"/>
</linearGradient>
<clipPath id="clip0">
<rect width="48" height="48" fill="white" transform="translate(9 9)"/>
</clipPath>
</defs>
</svg>
