<svg width="14" height="24" viewBox="0 0 14 24" fill="none" xmlns="http://www.w3.org/2000/svg">
<path d="M12.9991 0.0049936L9.88685 0C6.39036 0 4.13078 2.31828 4.13078 5.90643V8.62969H1.00158C0.731174 8.62969 0.512207 8.84891 0.512207 9.11932V13.065C0.512207 13.3354 0.731424 13.5544 1.00158 13.5544H4.13078V23.5106C4.13078 23.781 4.34975 24 4.62015 24H8.70288C8.97328 24 9.19224 23.7808 9.19224 23.5106V13.5544H12.851C13.1214 13.5544 13.3404 13.3354 13.3404 13.065L13.3419 9.11932C13.3419 8.98948 13.2902 8.86514 13.1986 8.77326C13.1069 8.68138 12.9821 8.62969 12.8523 8.62969H9.19224V6.32115C9.19224 5.21157 9.45665 4.64829 10.902 4.64829L12.9986 4.64755C13.2687 4.64755 13.4877 4.42833 13.4877 4.15817V0.494367C13.4877 0.224462 13.269 0.00549296 12.9991 0.0049936Z" fill="#191919"/>
</svg>
