<svg width="96" height="24" viewBox="0 0 96 24" fill="none" xmlns="http://www.w3.org/2000/svg">
<rect x="0.5" width="95" height="24" rx="4" fill="white"/>
<g clip-path="url(#clip0)">
<path d="M24.1853 4.06054C24.0242 3.97982 23.8345 3.97982 23.6734 4.06054L8.81677 11.4889C8.53456 11.6301 8.42029 11.9734 8.56152 12.2556C8.6419 12.4162 8.79317 12.5297 8.96988 12.562L14.8663 13.6345L15.9388 19.5309C15.9827 19.7726 16.1762 19.9592 16.4193 19.9943C16.4462 19.9982 16.4733 20.0001 16.5005 20C16.7171 20.0001 16.9151 19.8778 17.0119 19.684L24.4402 4.82736C24.5816 4.54521 24.4675 4.2019 24.1853 4.06054Z" fill="#3456AF"/>
</g>
<path d="M41.5713 4.608V16H39.6673V7.216L36.4993 16H34.8673L31.6193 7.216V16H29.7313V4.608H32.5312L35.7153 13.52L38.7873 4.608H41.5713ZM47.534 7.504C48.7927 7.504 49.7953 7.89867 50.542 8.688C51.2887 9.47733 51.662 10.5387 51.662 11.872C51.662 13.216 51.2887 14.2827 50.542 15.072C49.806 15.8613 48.8033 16.256 47.534 16.256C46.2433 16.256 45.2193 15.8613 44.462 15.072C43.7047 14.2827 43.326 13.216 43.326 11.872C43.326 10.5387 43.7047 9.47733 44.462 8.688C45.23 7.89867 46.254 7.504 47.534 7.504ZM49.198 9.728C48.7927 9.20533 48.2273 8.944 47.502 8.944C46.7767 8.944 46.206 9.20533 45.79 9.728C45.374 10.2507 45.166 10.9653 45.166 11.872C45.166 12.8 45.374 13.5253 45.79 14.048C46.206 14.5707 46.782 14.832 47.518 14.832C48.2327 14.832 48.7927 14.5707 49.198 14.048C49.614 13.5147 49.822 12.784 49.822 11.856C49.822 10.9493 49.614 10.24 49.198 9.728ZM60.6824 12.88C60.5544 13.8933 60.149 14.704 59.4664 15.312C58.7837 15.9093 57.925 16.208 56.8904 16.208C55.653 16.208 54.6664 15.8187 53.9304 15.04C53.1944 14.2507 52.8264 13.2213 52.8264 11.952C52.8264 10.5867 53.1944 9.504 53.9304 8.704C54.677 7.89333 55.6797 7.488 56.9384 7.488C57.9944 7.488 58.8424 7.75467 59.4824 8.288C60.133 8.82133 60.5117 9.56267 60.6184 10.512H58.8104C58.7037 9.98933 58.4904 9.58933 58.1704 9.312C57.8504 9.03467 57.445 8.896 56.9544 8.896C56.2504 8.896 55.6957 9.16267 55.2904 9.696C54.885 10.2187 54.6824 10.9387 54.6824 11.856C54.6824 12.7733 54.8744 13.488 55.2584 14C55.653 14.512 56.197 14.768 56.8904 14.768C57.4344 14.768 57.877 14.608 58.2184 14.288C58.5704 13.9573 58.7944 13.488 58.8904 12.88H60.6824ZM69.797 16H67.589L64.997 12.304L63.909 13.44V16H62.085V7.744H63.909V11.408L67.205 7.744H69.429L66.213 11.056L69.797 16ZM78.0548 13.664C78.0548 14.4107 77.7881 14.9867 77.2548 15.392C76.7321 15.7973 75.9854 16 75.0148 16H70.6788V7.744H75.2388C76.0068 7.744 76.6041 7.92 77.0308 8.272C77.4681 8.624 77.6868 9.12 77.6868 9.76C77.6868 10.1973 77.5908 10.5493 77.3988 10.816C77.2068 11.0827 76.9081 11.312 76.5028 11.504V11.536C77.5374 11.8027 78.0548 12.512 78.0548 13.664ZM75.0148 12.352H72.5028V14.624H75.0148C75.8361 14.624 76.2468 14.2507 76.2468 13.504C76.2468 13.1413 76.1401 12.8587 75.9268 12.656C75.7134 12.4533 75.4094 12.352 75.0148 12.352ZM74.7748 9.12H72.5028V11.024H74.8228C75.5268 11.024 75.8788 10.6933 75.8788 10.032C75.8788 9.424 75.5108 9.12 74.7748 9.12ZM79.4894 10.288C79.6814 8.42133 80.8867 7.488 83.1054 7.488C84.14 7.488 84.9614 7.69067 85.5694 8.096C86.188 8.50133 86.4974 9.13067 86.4974 9.984V14.176C86.4974 14.4107 86.524 14.5707 86.5774 14.656C86.6414 14.7413 86.7587 14.784 86.9294 14.784C87.0574 14.784 87.196 14.7733 87.3454 14.752V16.032C86.876 16.1493 86.4814 16.208 86.1614 16.208C85.3827 16.208 84.9347 15.8773 84.8174 15.216C84.124 15.8773 83.1587 16.208 81.9214 16.208C81.068 16.208 80.3907 15.9893 79.8894 15.552C79.388 15.104 79.1374 14.5013 79.1374 13.744C79.1374 13.5093 79.164 13.2907 79.2174 13.088C79.2707 12.8853 79.3294 12.7093 79.3934 12.56C79.468 12.4107 79.58 12.272 79.7294 12.144C79.8894 12.016 80.0174 11.9093 80.1134 11.824C80.22 11.7387 80.3854 11.6587 80.6094 11.584C80.844 11.5093 81.0147 11.456 81.1214 11.424C81.2387 11.3813 81.436 11.3387 81.7134 11.296C81.9907 11.2533 82.172 11.2267 82.2574 11.216C82.3534 11.1947 82.5454 11.168 82.8334 11.136C83.484 11.0507 83.9267 10.9813 84.1614 10.928C84.396 10.864 84.556 10.7733 84.6414 10.656C84.716 10.5707 84.7534 10.3733 84.7534 10.064C84.7534 9.232 84.188 8.816 83.0574 8.816C82.46 8.816 82.0227 8.928 81.7454 9.152C81.468 9.376 81.292 9.75467 81.2174 10.288H79.4894ZM84.7374 11.856C84.5987 11.9307 84.4387 12 84.2574 12.064C84.076 12.1173 83.9267 12.1547 83.8094 12.176C83.7027 12.1867 83.5267 12.208 83.2814 12.24C83.0467 12.272 82.892 12.2933 82.8174 12.304C82.5934 12.336 82.4174 12.368 82.2894 12.4C82.1614 12.4213 82.0014 12.464 81.8094 12.528C81.628 12.592 81.484 12.672 81.3774 12.768C81.2814 12.8533 81.196 12.976 81.1214 13.136C81.0467 13.2853 81.0094 13.4667 81.0094 13.68C81.0094 14.0747 81.1374 14.3787 81.3934 14.592C81.66 14.8053 82.028 14.912 82.4974 14.912C83.308 14.912 83.932 14.6933 84.3694 14.256C84.6147 14.0107 84.7374 13.536 84.7374 12.832V11.856Z" fill="#3456AF"/>
<defs>
<clipPath id="clip0">
<rect width="16" height="16" fill="white" transform="translate(8.5 4)"/>
</clipPath>
</defs>
</svg>
