<svg width="66" height="66" viewBox="0 0 66 66" fill="none" xmlns="http://www.w3.org/2000/svg">
<circle cx="33" cy="33" r="33" fill="#F2F2F2"/>
<g clip-path="url(#clip0)">
<path d="M46.8075 53.4666C46.2646 53.4666 45.7365 53.1849 45.4456 52.6809C45.0117 51.9295 45.2693 50.9687 46.0206 50.5349L49.0212 48.8025C49.7726 48.3688 50.7334 48.6261 51.1673 49.3776C51.6012 50.129 51.3436 51.0898 50.5923 51.5236L47.5917 53.256C47.3442 53.3987 47.0741 53.4666 46.8075 53.4666Z" fill="#43386B"/>
<path d="M32.3562 46.1314C32.3562 40.7546 29.0873 34.5086 25.0547 32.1804C23.0275 31.0101 21.313 31.0948 19.8705 32.0677L16.7446 33.8725L26.6207 53.894L30.0104 51.9259C31.4528 50.9802 32.3562 48.9575 32.3562 46.1314Z" fill="url(#paint0_linear)"/>
<path d="M26.3117 54.0414C29.5338 52.6685 30.1786 46.9385 27.7519 41.2431C25.3251 35.5476 20.7458 32.0436 17.5237 33.4165C14.3015 34.7894 13.6567 40.5194 16.0835 46.2148C18.5102 51.9102 23.0895 55.4143 26.3117 54.0414Z" fill="#A996EB"/>
<path d="M27.2632 48.3456C27.2632 53.1596 24.3364 55.3723 20.7259 53.2877C17.1154 51.2032 14.1885 45.6109 14.1885 40.7969C14.1885 35.983 17.1154 33.7703 20.7259 35.8548C24.3364 37.9393 27.2632 43.5316 27.2632 48.3456Z" fill="url(#paint1_linear)"/>
<path d="M22.8797 47.5844C22.8797 50.4488 21.1382 51.7653 18.9899 50.5251C16.8416 49.2848 15.1001 45.9573 15.1001 43.0929C15.1001 40.2286 16.8416 38.9121 18.9899 40.1523C21.1382 41.3926 22.8797 44.7201 22.8797 47.5844Z" fill="url(#paint2_linear)"/>
<path d="M51.812 34.0995C51.812 38.9135 48.8852 41.1262 45.2747 39.0416C41.6642 36.9571 38.7373 31.3648 38.7373 26.5509C38.7373 21.7369 41.6642 19.5242 45.2747 21.6087C48.8852 23.6932 51.812 29.2854 51.812 34.0995Z" fill="url(#paint3_linear)"/>
<path d="M51.5199 35.0513C51.5199 29.6745 48.2509 23.4285 44.2184 21.1004C42.1911 19.93 40.4766 20.0147 39.0341 20.9877L35.9082 22.7924L45.7843 42.8139L48.8266 41.0475C48.9455 40.9869 49.0614 40.9196 49.174 40.8458C50.6165 39.9001 51.5199 37.8774 51.5199 35.0513Z" fill="url(#paint4_linear)"/>
<path d="M45.467 42.9555C48.6891 41.5826 49.3339 35.8526 46.9072 30.1571C44.4804 24.4617 39.9011 20.9576 36.6789 22.3305C33.4568 23.7034 32.812 29.4335 35.2387 35.1289C37.6655 40.8243 42.2448 44.3284 45.467 42.9555Z" fill="#A996EB"/>
<path d="M45.6106 35.2836C45.6106 38.6289 43.5767 40.1664 41.0677 38.7179C38.5588 37.2694 36.5249 33.3833 36.5249 30.038C36.5249 26.6928 38.5588 25.1552 41.0677 26.6037C43.5767 28.0522 45.6106 31.9383 45.6106 35.2836Z" fill="url(#paint5_linear)"/>
<path d="M42.9952 13.5112C43.0466 13.5185 43.0745 13.5225 43.0745 13.5225L42.4306 13.1508C42.4306 13.1508 42.4305 13.1507 42.4304 13.1507C42.4304 13.1507 42.4303 13.1506 42.4303 13.1506C42.4303 13.1506 36.4239 9.71653 36.2796 9.69741C34.0817 8.67357 31.5693 8.77678 29.4356 10.0087C23.3986 13.4941 19.6484 19.9897 19.6484 26.9604V32.295C20.5227 32.3062 21.4839 32.5883 22.493 33.1708C23.4495 33.7231 24.3621 34.4978 25.1993 35.4271V35.4462L26.6655 34.5997V30.1025C26.6655 23.6539 30.1348 17.6449 35.7195 14.4205C36.5698 13.9296 37.4953 13.6625 38.4275 13.6177C38.8857 14.4698 39.1349 15.4371 39.1349 16.4552V20.9999C39.9986 21.0189 40.9459 21.3007 41.9398 21.8745C42.9115 22.4355 43.8379 23.2256 44.6858 24.1745V24.1956L46.152 23.349V19.5971C46.1523 17.1314 44.9835 14.9023 42.9952 13.5112Z" fill="url(#paint6_linear)"/>
<path d="M26.6661 34.5988V30.1016C26.6661 23.653 30.1354 17.644 35.7201 14.4196C37.5915 13.3392 39.826 13.3391 41.6976 14.4196C43.5691 15.5001 44.6863 17.4354 44.6863 19.5963V24.1948L46.1526 23.3482V19.5963C46.1526 16.9052 44.7611 14.4954 42.4307 13.1498C40.1 11.8042 37.3174 11.8043 34.9868 13.1498C28.9499 16.6352 25.1997 23.1308 25.1997 30.1016V35.4453L26.6661 34.5988Z" fill="#A996EB"/>
<path d="M38.4378 56.9997C37.8 56.9997 37.1622 56.8355 36.5932 56.5071L29.5937 52.4659C29.2431 52.2634 29.1229 51.8151 29.3254 51.4644C29.5279 51.1136 29.9763 50.9935 30.3269 51.196L37.3264 55.2372C38.0122 55.6331 38.864 55.6329 39.5493 55.2372L45.7856 51.6368C46.1364 51.4344 46.5847 51.5545 46.7871 51.9051C46.9895 52.2557 46.8693 52.7041 46.5187 52.9066L40.2825 56.5071C39.7136 56.8355 39.0758 56.9997 38.4378 56.9997Z" fill="#A996EB"/>
</g>
<defs>
<linearGradient id="paint0_linear" x1="27.5999" y1="44.5177" x2="23.2463" y2="36.977" gradientUnits="userSpaceOnUse">
<stop stop-color="#43386B"/>
<stop offset="1" stop-color="#7662BD"/>
</linearGradient>
<linearGradient id="paint1_linear" x1="20.7259" y1="52.9271" x2="20.7259" y2="38.0542" gradientUnits="userSpaceOnUse">
<stop stop-color="#D5C9F1"/>
<stop offset="1" stop-color="#F2EFFA"/>
</linearGradient>
<linearGradient id="paint2_linear" x1="18.9899" y1="50.378" x2="18.9899" y2="38.0183" gradientUnits="userSpaceOnUse">
<stop stop-color="#A996EB"/>
<stop offset="1" stop-color="#D7D1EB"/>
</linearGradient>
<linearGradient id="paint3_linear" x1="45.2747" y1="38.681" x2="45.2747" y2="23.8081" gradientUnits="userSpaceOnUse">
<stop stop-color="#D5C9F1"/>
<stop offset="1" stop-color="#F2EFFA"/>
</linearGradient>
<linearGradient id="paint4_linear" x1="46.7635" y1="33.4377" x2="42.4099" y2="25.8969" gradientUnits="userSpaceOnUse">
<stop stop-color="#43386B"/>
<stop offset="1" stop-color="#7662BD"/>
</linearGradient>
<linearGradient id="paint5_linear" x1="36.5249" y1="32.6607" x2="45.6106" y2="32.6607" gradientUnits="userSpaceOnUse">
<stop stop-color="#43386B"/>
<stop offset="1" stop-color="#7662BD"/>
</linearGradient>
<linearGradient id="paint6_linear" x1="30.9394" y1="25.9373" x2="34.8879" y2="19.0983" gradientUnits="userSpaceOnUse">
<stop stop-color="#43386B"/>
<stop offset="1" stop-color="#7662BD"/>
</linearGradient>
<clipPath id="clip0">
<rect width="48" height="48" fill="white" transform="translate(9 9)"/>
</clipPath>
</defs>
</svg>
