<svg width="16" height="24" viewBox="0 0 16 24" fill="none" xmlns="http://www.w3.org/2000/svg">
<path d="M6.81876 16.9046C4.9582 16.7106 3.28063 16.2524 1.84437 15.129C1.66615 14.9893 1.48216 14.8546 1.31953 14.6985C0.690882 14.0947 0.627539 13.4032 1.12498 12.6906C1.55053 12.0808 2.26489 11.9177 3.00741 12.2678C3.15118 12.3357 3.28817 12.4204 3.41938 12.5114C6.0961 14.3506 9.77324 14.4014 12.46 12.5941C12.7262 12.39 13.0107 12.2236 13.3405 12.1386C13.9817 11.974 14.5797 12.2095 14.9238 12.7705C15.317 13.4112 15.3119 14.0366 14.8276 14.5341C14.0845 15.2967 13.191 15.8484 12.1981 16.2335C11.2593 16.5975 10.231 16.7807 9.21321 16.9024C9.36679 17.0695 9.43918 17.1517 9.5352 17.2482C10.9172 18.6368 12.3052 20.0195 13.6826 21.4123C14.1519 21.8868 14.2499 22.4753 13.9915 23.0272C13.709 23.6305 13.0766 24.0274 12.4565 23.9849C12.0636 23.9578 11.7572 23.7622 11.485 23.488C10.4421 22.4386 9.37961 21.4085 8.35783 20.3392C8.06048 20.0283 7.91745 20.0871 7.65503 20.357C6.60586 21.4371 5.5396 22.5006 4.46705 23.5581C3.98544 24.0329 3.41235 24.1184 2.85383 23.8472C2.26012 23.5594 1.88232 22.9533 1.91148 22.3443C1.93159 21.9323 2.13418 21.6176 2.41696 21.3353C3.78461 19.9697 5.14848 18.6006 6.51286 17.2327C6.6031 17.1417 6.6873 17.0451 6.81876 16.9046Z" fill="#191919"/>
<path d="M7.95232 12.1479C4.63313 12.1366 1.91141 9.38501 1.93077 6.06054C1.94987 2.69937 4.67334 -0.0092764 8.02521 2.38782e-05C11.3839 0.0090728 14.0797 2.75668 14.0629 6.15279C14.0458 9.47047 11.3052 12.1595 7.95232 12.1479ZM10.9689 6.06858C10.9631 4.41791 9.64849 3.1038 8.00108 3.1023C6.33985 3.10054 5.01343 4.43852 5.02625 6.10427C5.03857 7.74866 6.36449 9.05347 8.01642 9.04744C9.66332 9.04165 10.9744 7.719 10.9689 6.06858Z" fill="#191919"/>
</svg>
