<svg width="66" height="66" viewBox="0 0 66 66" fill="none" xmlns="http://www.w3.org/2000/svg">
<circle cx="33" cy="33" r="33" fill="#F2F2F2"/>
<g clip-path="url(#clip0)">
<path d="M55.8943 26.8939C55.5259 26.2921 54.4972 25.7838 53.5966 25.7588C53.1006 25.745 52.748 25.8812 52.5919 26.1063L52.5907 26.1058L51.7185 27.3355L51.7208 27.3365C51.5781 27.5224 51.574 27.773 51.7459 28.0539C52.1143 28.6558 53.143 29.164 54.0436 29.1891C54.5641 29.2036 54.9264 29.0529 55.0696 28.8074L55.8963 27.6419L55.8958 27.6416C56.0624 27.4531 56.0756 27.19 55.8943 26.8939Z" fill="url(#paint0_linear)"/>
<path d="M47.3453 40.6759V24.1895L17.104 25.3242V41.8106C17.1039 42.1883 17.3176 42.5661 17.7449 42.782L29.7247 48.834C30.5767 49.2644 31.6264 49.2644 32.4784 48.834L46.7044 41.6473C47.1318 41.4314 47.3453 41.0537 47.3453 40.6759Z" fill="url(#paint1_linear)"/>
<path d="M17.7449 24.3532L31.9709 17.1666C32.8229 16.7361 33.8726 16.7361 34.7246 17.1666L46.7045 23.2186C47.559 23.6503 47.559 24.7295 46.7045 25.1612L32.4785 32.3478C31.6265 32.7783 30.5767 32.7783 29.7247 32.3478L17.7449 26.2958C16.8904 25.8641 16.8904 24.7849 17.7449 24.3532Z" fill="url(#paint2_linear)"/>
<path d="M22.3574 22.0222L37.6368 29.741L41.6899 27.6935L26.4105 19.9746L22.3574 22.0222Z" fill="#DEA861"/>
<path d="M24.7803 20.7988L40.0597 28.5177L39.2657 28.9188L23.9863 21.2L24.7803 20.7988Z" fill="#CC8241"/>
<path d="M37.6372 29.7428V32.6716L41.6903 30.6241V27.6953L37.6372 29.7428Z" fill="#CC8241"/>
<path d="M9.93037 24.6595L19.2229 29.3539C19.6977 29.5937 19.9902 30.037 19.9902 30.5167C19.9902 30.9345 19.4733 31.1956 19.0598 30.9868L9.76734 26.2924C9.2925 26.0525 9 25.6092 9 25.1295C9 24.7117 9.51684 24.4505 9.93037 24.6595Z" fill="url(#paint3_linear)"/>
<path d="M13.3274 29.8372L22.6198 34.5316C23.0947 34.7715 23.3872 35.2148 23.3872 35.6945C23.3872 36.1123 22.8703 36.3734 22.4568 36.1645L13.1643 31.4701C12.6895 31.2303 12.397 30.787 12.397 30.3073C12.3971 29.8894 12.9139 29.6283 13.3274 29.8372Z" fill="url(#paint4_linear)"/>
<path d="M54.5992 28.3072L54.5996 28.3066L51.4446 26.7173L51.4445 26.7177C50.1991 26.1403 48.5992 26.2226 46.8539 27.1042C42.8828 29.1104 39.6636 34.4925 39.6636 39.1255C39.6636 41.6726 40.6379 43.4607 42.174 44.2232L42.1729 44.2252L45.0555 45.6814L45.0585 45.676C46.3255 46.3388 47.9878 46.2909 49.8095 45.3706C53.7806 43.3645 56.9999 37.9824 56.9999 33.3493C56.9999 30.8631 56.072 29.0993 54.5992 28.3072Z" fill="url(#paint5_linear)"/>
<path d="M55.5689 39.1402C57.9587 34.2325 57.3237 29.2951 54.1506 28.1121C50.9775 26.9291 46.4679 29.9485 44.0781 34.8561C41.6883 39.7638 42.3233 44.7012 45.4964 45.8842C48.6694 47.0672 53.179 44.0478 55.5689 39.1402Z" fill="#A996EB"/>
<path d="M53.9704 38.5454C55.6955 35.0029 55.2371 31.439 52.9467 30.585C50.6563 29.7311 47.4012 31.9106 45.6761 35.453C43.9511 38.9955 44.4095 42.5594 46.6999 43.4134C48.9903 44.2673 52.2454 42.0878 53.9704 38.5454Z" fill="#F2EFFA"/>
<path d="M54.2451 31.5971C53.3343 30.3122 51.6884 29.9784 49.8091 30.9277V36.9829L54.2451 31.5971Z" fill="#FF4757"/>
<path d="M50.8148 36.4735C50.8148 35.8259 50.3648 35.5283 49.8097 35.8086C49.2546 36.089 48.8047 36.8413 48.8047 37.489C48.8047 38.1366 49.2547 38.4342 49.8097 38.1537C50.3648 37.8734 50.8148 37.1211 50.8148 36.4735Z" fill="#594A8E"/>
<path d="M49.418 38.037V32.4813C49.418 32.2921 49.5933 32.1387 49.8096 32.1387C50.0258 32.1387 50.2012 32.2921 50.2012 32.4813V35.926L52.3206 33.3705C52.4476 33.2175 52.6923 33.183 52.8674 33.2944C53.0424 33.4055 53.0813 33.6197 52.9544 33.7729L49.418 38.037Z" fill="#594A8E"/>
<path d="M50.0435 27.0079V25.7578L47.2842 25.9204V27.2263L47.2861 27.2261C47.2793 27.3915 47.3883 27.5502 47.6213 27.6679C48.1206 27.9202 48.9928 27.8885 49.5693 27.5973C49.9026 27.4289 50.063 27.2108 50.0435 27.0079Z" fill="#594A8E"/>
<path d="M50.8104 24.9874V23.4102L46.5166 23.6632V25.3273L46.5195 25.3271C46.5089 25.5844 46.6787 25.8315 47.0411 26.0146C47.8181 26.4071 49.1753 26.3579 50.0725 25.9046C50.5911 25.6426 50.8406 25.3031 50.8104 24.9874Z" fill="url(#paint6_linear)"/>
<path d="M48.8271 24.5666C50.0116 24.4403 50.9056 23.8626 50.824 23.2762C50.7423 22.6899 49.7159 22.3169 48.5314 22.4432C47.3469 22.5695 46.4529 23.1472 46.5346 23.7336C46.6162 24.32 47.6426 24.6929 48.8271 24.5666Z" fill="#FF7A85"/>
<path d="M44.7827 29.8376L43.5065 29.041L41.5425 31.8289L42.889 32.6694L42.8903 32.6675C43.0932 32.804 43.3789 32.8237 43.7102 32.6917C44.4202 32.4086 45.0659 31.5429 45.1522 30.7581C45.2021 30.3045 45.0534 29.9784 44.7827 29.8376Z" fill="url(#paint7_linear)"/>
<path d="M43.4226 30.8716C43.9184 30.0747 43.9027 29.2296 43.3874 28.9841C42.8721 28.7386 42.0524 29.1857 41.5566 29.9827C41.0607 30.7797 41.0764 31.6248 41.5917 31.8702C42.107 32.1157 42.9267 31.6686 43.4226 30.8716Z" fill="#06DAAE"/>
</g>
<defs>
<linearGradient id="paint0_linear" x1="51.6154" y1="27.4739" x2="56.0256" y2="27.4739" gradientUnits="userSpaceOnUse">
<stop stop-color="#236568"/>
<stop offset="1" stop-color="#2F878A"/>
</linearGradient>
<linearGradient id="paint1_linear" x1="28.6845" y1="36.6731" x2="32.8387" y2="36.6731" gradientUnits="userSpaceOnUse">
<stop stop-color="#CC8241"/>
<stop offset="1" stop-color="#DEA861"/>
</linearGradient>
<linearGradient id="paint2_linear" x1="23.8056" y1="20.5039" x2="38.2568" y2="30.0393" gradientUnits="userSpaceOnUse">
<stop stop-color="#DEA861"/>
<stop offset="1" stop-color="#EBCBA0"/>
</linearGradient>
<linearGradient id="paint3_linear" x1="20.8224" y1="31.2302" x2="10.6388" y2="24.0681" gradientUnits="userSpaceOnUse">
<stop stop-color="#43386B"/>
<stop offset="1" stop-color="#7662BD"/>
</linearGradient>
<linearGradient id="paint4_linear" x1="24.2195" y1="36.4079" x2="14.0359" y2="29.2457" gradientUnits="userSpaceOnUse">
<stop stop-color="#43386B"/>
<stop offset="1" stop-color="#7662BD"/>
</linearGradient>
<linearGradient id="paint5_linear" x1="48.8195" y1="35.4982" x2="51.2229" y2="30.7407" gradientUnits="userSpaceOnUse">
<stop stop-color="#43386B"/>
<stop offset="1" stop-color="#7662BD"/>
</linearGradient>
<linearGradient id="paint6_linear" x1="46.5166" y1="24.8449" x2="51.3577" y2="24.8449" gradientUnits="userSpaceOnUse">
<stop stop-color="#AB2C37"/>
<stop offset="1" stop-color="#FF7A85"/>
</linearGradient>
<linearGradient id="paint7_linear" x1="42.5056" y1="32.4352" x2="44.5394" y2="29.1788" gradientUnits="userSpaceOnUse">
<stop stop-color="#236568"/>
<stop offset="1" stop-color="#2F878A"/>
</linearGradient>
<clipPath id="clip0">
<rect width="48" height="42" fill="white" transform="translate(9 12)"/>
</clipPath>
</defs>
</svg>
