<svg width="24" height="14" viewBox="0 0 24 14" fill="none" xmlns="http://www.w3.org/2000/svg">
<path d="M23.8728 12.5207C23.8437 12.458 23.8166 12.4061 23.7915 12.3645C23.3751 11.6145 22.5793 10.694 21.4047 9.60267L21.3799 9.57767L21.3675 9.56542L21.3549 9.55286H21.3423C20.8093 9.04468 20.4717 8.70299 20.3303 8.52805C20.0716 8.19481 20.0137 7.8575 20.1551 7.51572C20.2549 7.2575 20.6301 6.71216 21.2797 5.87897C21.6214 5.4374 21.892 5.0835 22.0918 4.81687C23.5331 2.90075 24.158 1.67632 23.9663 1.14311L23.8919 1.0185C23.8418 0.943488 23.7127 0.874861 23.5047 0.812274C23.2962 0.749818 23.0297 0.73949 22.7047 0.781112L19.106 0.805972C19.0477 0.785314 18.9645 0.787239 18.856 0.812274C18.7477 0.837309 18.6935 0.84987 18.6935 0.84987L18.6309 0.881164L18.5812 0.918759C18.5395 0.943619 18.4937 0.987343 18.4436 1.04984C18.3939 1.11212 18.3523 1.18521 18.319 1.2685C17.9272 2.2765 17.4817 3.21368 16.9818 4.08001C16.6735 4.59659 16.3904 5.04428 16.1319 5.42335C15.8737 5.80229 15.6571 6.08148 15.4823 6.26044C15.3073 6.43958 15.1493 6.58309 15.0074 6.6915C14.8657 6.79996 14.7575 6.84578 14.6827 6.82902C14.6076 6.81225 14.5369 6.79562 14.47 6.77899C14.3534 6.70397 14.2597 6.60195 14.189 6.47284C14.118 6.34373 14.0702 6.18122 14.0452 5.98545C14.0204 5.78955 14.0057 5.62105 14.0015 5.47937C13.9976 5.33787 13.9994 5.13773 14.0078 4.8795C14.0165 4.62114 14.0204 4.44634 14.0204 4.35469C14.0204 4.03808 14.0265 3.69446 14.0389 3.32376C14.0515 2.95305 14.0617 2.65933 14.0703 2.44295C14.0788 2.22634 14.0827 1.99718 14.0827 1.75559C14.0827 1.51399 14.068 1.32452 14.0389 1.18701C14.0102 1.04967 13.9661 0.916352 13.9081 0.787108C13.8496 0.657995 13.7641 0.558119 13.6519 0.487216C13.5395 0.416401 13.3997 0.360204 13.2333 0.318451C12.7917 0.21853 12.2295 0.164478 11.5462 0.156075C9.99683 0.139443 9.00126 0.239495 8.55974 0.456098C8.3848 0.547615 8.22649 0.672657 8.08495 0.830831C7.93496 1.01417 7.91404 1.11422 8.02232 1.13068C8.52223 1.20557 8.87613 1.3847 9.08442 1.66792L9.15948 1.818C9.21786 1.92628 9.27616 2.11798 9.3345 2.39283C9.39275 2.66769 9.43035 2.97174 9.44689 3.30481C9.48847 3.91304 9.48847 4.43369 9.44689 4.86681C9.40518 5.3001 9.36579 5.63742 9.3282 5.87901C9.2906 6.1206 9.23441 6.31637 9.15948 6.46628C9.08442 6.61622 9.03448 6.70787 9.00944 6.74113C8.98445 6.7744 8.96362 6.79536 8.94708 6.80359C8.8388 6.84508 8.72618 6.86622 8.60963 6.86622C8.4929 6.86622 8.35136 6.80783 8.18478 6.69115C8.01825 6.57447 7.84542 6.41419 7.66628 6.21006C7.48714 6.00589 7.28511 5.72057 7.0601 5.35407C6.83527 4.98756 6.60199 4.5544 6.3604 4.05458L6.16052 3.6921C6.03556 3.45891 5.86487 3.11937 5.64827 2.67377C5.43153 2.22801 5.23996 1.79681 5.07343 1.38028C5.00686 1.20535 4.90685 1.07216 4.77358 0.980515L4.71104 0.942919C4.66946 0.909656 4.60272 0.874336 4.51116 0.836696C4.41946 0.7991 4.32379 0.772139 4.22374 0.755552L0.799886 0.780412C0.450013 0.780412 0.21262 0.859674 0.0876216 1.01798L0.0375959 1.09286C0.0126049 1.13457 0 1.20119 0 1.29288C0 1.38453 0.024991 1.49701 0.0750167 1.63019C0.574836 2.8049 1.11838 3.93781 1.70564 5.0291C2.29291 6.12038 2.80323 6.99945 3.23631 7.66549C3.66947 8.33202 4.11099 8.96108 4.56087 9.55238C5.01076 10.1439 5.30855 10.523 5.45425 10.6895C5.60012 10.8563 5.7147 10.9811 5.79799 11.0644L6.11045 11.3642C6.31037 11.5642 6.60396 11.8037 6.99135 12.0827C7.37882 12.3619 7.80778 12.6367 8.27845 12.9077C8.7492 13.1782 9.29686 13.399 9.92172 13.5697C10.5465 13.7406 11.1546 13.8092 11.7461 13.7761H13.1832C13.4746 13.7509 13.6954 13.6593 13.8455 13.5011L13.8952 13.4385C13.9286 13.3888 13.9599 13.3115 13.9888 13.2076C14.0181 13.1035 14.0326 12.9887 14.0326 12.864C14.0241 12.5058 14.0513 12.183 14.1136 11.8957C14.1759 11.6084 14.2469 11.3918 14.3263 11.2459C14.4057 11.1002 14.4952 10.9772 14.5949 10.8775C14.6947 10.7775 14.7659 10.717 14.8077 10.6962C14.8491 10.6752 14.8823 10.661 14.9073 10.6525C15.1072 10.5858 15.3425 10.6504 15.6135 10.8463C15.8843 11.0421 16.1383 11.2838 16.3758 11.5711C16.6133 11.8586 16.8985 12.1812 17.2317 12.5394C17.5651 12.8977 17.8566 13.164 18.1064 13.3392L18.3562 13.4891C18.523 13.5892 18.7396 13.6808 19.0063 13.7641C19.2724 13.8474 19.5056 13.8682 19.7058 13.8266L22.9046 13.7767C23.221 13.7767 23.4672 13.7243 23.6419 13.6203C23.8168 13.5162 23.9208 13.4015 23.9543 13.2767C23.9877 13.1518 23.9895 13.0101 23.9607 12.8517C23.931 12.6936 23.9018 12.5831 23.8728 12.5207Z" fill="#191919"/>
</svg>
